<?xml version="1.0" encoding="UTF-8"?><svg id="Layer_1" xmlns="http://www.w3.org/2000/svg" xmlns:xlink="http://www.w3.org/1999/xlink" viewBox="0 0 91.313 128"><defs><linearGradient id="linear-gradient" x1="65.3" y1="43.615" x2="-13.369" y2="2.054" gradientUnits="userSpaceOnUse"><stop offset=".008" stop-color="#4d4d4d"/><stop offset=".476" stop-color="#c4c4c4" stop-opacity=".329"/><stop offset=".748" stop-color="#fff" stop-opacity="0"/></linearGradient><linearGradient id="linear-gradient-2" x1="-.179" y1="102.451" x2="18.772" y2="121.402" gradientUnits="userSpaceOnUse"><stop offset=".008" stop-color="#4d4d4d"/><stop offset=".635" stop-color="#c4c4c4" stop-opacity=".329"/><stop offset="1" stop-color="#fff" stop-opacity="0"/></linearGradient></defs><polygon points="78.274 45.177 65.236 52.707 65.23 52.707 65.23 52.701 52.191 45.177 52.191 45.17 39.146 37.646 39.146 37.64 26.108 30.116 13.07 22.585 13.063 22.585 .025 15.055 .025 0 13.063 7.524 26.108 15.055 39.146 22.585 52.191 30.116 65.23 37.64 65.23 37.646 78.274 45.177" fill="#fff"/><polygon points="78.274 45.177 65.236 52.707 65.23 52.707 65.23 52.701 52.191 45.177 52.191 45.17 39.146 37.646 39.146 37.64 26.108 30.116 13.07 22.585 13.063 22.585 .025 15.055 .025 0 13.063 7.524 26.108 15.055 39.146 22.585 52.191 30.116 65.23 37.64 65.23 37.646 78.274 45.177" fill="url(#linear-gradient)"/><path d="M78.274,45.177L16.863,9.721c15.746,9.821,38.301,25.94,48.373,42.986h-.006l-13.038,7.524-13.045,7.531v.006l-13.038,7.524-13.038,7.531h-.006L.025,90.354v30.116l13.038-7.524v-15.068l13.045-7.524v-.006l13.038-7.524v-.006l13.045-7.524,13.038-7.531,13.045-7.531,13.038-7.524v-.006l-13.038-7.524Z" fill="#fff"/><polygon points="78.274 75.293 65.229 82.823 52.191 90.354 39.153 97.878 39.146 97.884 26.108 105.408 13.07 112.939 13.063 112.939 13.063 112.945 .025 120.469 13.063 127.994 13.063 128 13.07 128 39.146 112.939 52.191 105.408 65.229 97.878 78.268 90.354 78.274 90.354 78.274 90.347 91.313 82.823 91.313 67.762 78.274 75.293" fill="#fff"/><path d="M13.063,97.878S.025,104.202.025,120.469l13.038-7.531v-15.061Z" fill="#fff"/><path d="M13.063,97.878S-.661,104.999.025,120.469l13.038-7.524v-15.068Z" fill="url(#linear-gradient-2)"/></svg>