<?xml version="1.0" encoding="UTF-8"?><svg id="Layer_1" xmlns="http://www.w3.org/2000/svg" xmlns:xlink="http://www.w3.org/1999/xlink" viewBox="0 0 201.585 358.235"><defs><linearGradient id="linear-gradient" x1="103.78" y1="25.725" x2="61.378" y2="84.719" gradientUnits="userSpaceOnUse"><stop offset=".008" stop-color="gray"/><stop offset=".209" stop-color="#a5a5a5" stop-opacity=".703"/><stop offset=".575" stop-color="#e5e5e5" stop-opacity=".198"/><stop offset=".748" stop-color="#fff" stop-opacity="0"/></linearGradient><linearGradient id="linear-gradient-2" x1="-.394" y1="226.174" x2="41.442" y2="268.01" gradientUnits="userSpaceOnUse"><stop offset=".007" stop-color="gray"/><stop offset=".276" stop-color="#595959" stop-opacity=".703"/><stop offset=".768" stop-color="#191919" stop-opacity=".198"/><stop offset="1" stop-color="#000" stop-opacity="0"/></linearGradient></defs><polygon points="172.801 99.734 144.017 116.359 144.003 116.359 144.003 116.344 115.219 99.734 115.219 99.72 86.421 83.109 86.421 83.095 57.637 66.485 28.853 49.86 28.839 49.86 .055 33.235 .055 0 28.839 16.611 57.637 33.235 86.421 49.86 115.219 66.485 144.003 83.095 144.003 83.109 172.801 99.734"/><polygon points="172.801 99.734 144.017 116.359 144.003 116.359 144.003 116.344 115.219 99.734 115.219 99.72 86.421 83.109 86.421 83.095 57.637 66.485 28.853 49.86 28.839 49.86 .055 33.235 .055 0 28.839 16.611 57.637 33.235 86.421 49.86 115.219 66.485 144.003 83.095 144.003 83.109 172.801 99.734" fill="url(#linear-gradient)"/><path d="M43.596,325.518h-12.058c-3.1.384-4.65,1.893-4.65,4.527,0,.357.041.535.123.535,0,2.058,1.331,3.375,3.992,3.951h6.996v14.815c0,.851.494,1.344,1.482,1.482h.412c.851,0,1.358-.631,1.523-1.893v-15.762c0-1.262-.686-1.948-2.058-2.058h-8.066c-.658,0-.988-.357-.988-1.07,0-.741.37-1.111,1.111-1.111h12.305c.823,0,1.235.59,1.235,1.77v21.647c-5.789,1.728-10.851,2.593-15.186,2.593-8.148,0-14.857-2.593-20.124-7.778-4.198-5.377-6.297-11.276-6.297-17.696,0-3.594.768-7.421,2.305-11.482,4.006-10.316,12.044-15.474,24.116-15.474,4.582,0,9.603.823,15.062,2.469,1.289-.274,1.934-.823,1.934-1.646,0-.466-.233-.974-.7-1.523-5.295-1.728-10.275-2.593-14.939-2.593h-2.716c-8.231,0-15.035,2.785-20.412,8.354-5.295,6.749-7.943,13.636-7.943,20.659v2.346c0,4.856,1.509,10.014,4.527,15.474,6.008,8.121,13.951,12.181,23.828,12.181h4.239c10.398-1.289,15.597-2.798,15.597-4.527v-23.951c0-.384-.041-.755-.123-1.111-.823-2.085-2.332-3.128-4.527-3.128Z"/><path d="M85.655,348.728h-18.437v-18.396c0-1.701,2.099-2.73,6.297-3.087h1.523c2.716,0,6.667.658,11.852,1.975,1.125,0,1.728-.604,1.811-1.811,0-.412-.233-.878-.7-1.399-5.131-1.482-9.507-2.222-13.128-2.222h-.947c-1.262,0-2.291.082-3.087.247-4.746,1.07-7.12,3.169-7.12,6.297v20.371c0,.878.521,1.386,1.564,1.523h20.906c1.015.137,1.523.37,1.523.7v1.276c-.137.357-.453.535-.947.535h-26.791v-52.018h27.614c1.674-.137,2.51-.7,2.51-1.687-.192-1.207-.7-1.811-1.523-1.811h-30.701c-.741,0-1.207.466-1.399,1.399v56.216c0,.741.466,1.207,1.399,1.399h28.89c2.963-.412,4.445-1.852,4.445-4.321v-.7c0-.658-.096-1.166-.288-1.523-.768-1.975-2.524-2.963-5.268-2.963Z"/><path d="M143.929,299.22h-.535l-.7.123c-.302.302-4.157,6.447-11.564,18.437-3.347,4.856-5.021,8.203-5.021,10.042,0,.878.137,1.811.412,2.798.329.768,4.692,8.107,13.087,22.017-.137,1.509-.741,2.263-1.811,2.263l-1.235-.453-22.347-49.097c-1.344-4.088-3.292-6.132-5.844-6.132h-1.523c-2.716.988-4.074,2.62-4.074,4.897v.7c0,.384.055.755.165,1.111.604,1.235,2.744,4.993,6.42,11.276,3.978,6.255,5.967,9.836,5.967,10.741v.453c0,.96-.412,2.071-1.235,3.333-9.712,15.968-14.596,24.157-14.651,24.569v.535c0,.741.466,1.207,1.399,1.399h.535l.7-.123c.329-.329,4.801-7.682,13.416-22.058,2.222-3.1,3.333-5.748,3.333-7.943,0-1.564-.782-3.526-2.346-5.885-6.365-10.535-9.808-16.434-10.33-17.696.247-1.317.851-1.975,1.811-1.975.576.137,1.043.329,1.399.576,1.564,3.237,8.821,19.137,21.77,47.697,1.619,4.938,3.608,7.408,5.967,7.408h1.811c2.798-1.015,4.198-2.785,4.198-5.309,0-.219-.041-.59-.123-1.111,0-.329-2.661-4.884-7.984-13.663-3.622-5.542-5.432-8.848-5.432-9.918,0-.604.137-1.344.412-2.222,10.234-16.187,15.35-24.473,15.35-24.857v-.535c0-.741-.466-1.207-1.399-1.399Z"/><path d="M198.252,312.431c-5.185-8.807-14.033-13.21-26.544-13.21h-2.346c-1.509,0-2.922.316-4.239.947-3.045,1.783-4.568,3.992-4.568,6.626v43.746c0,.713.508,1.221,1.523,1.523,1.29,0,1.934-.837,1.934-2.51v-42.759c.549-2.744,2.332-4.115,5.35-4.115h2.222c3.292,0,6.598.412,9.918,1.235,11.166,3.073,16.75,10.906,16.75,23.499,0,4.253-.727,8.245-2.181,11.976-4.472,10.371-14.376,15.556-29.713,15.556-2.963-.11-6.132-.343-9.507-.7v-52.389c0-.713-.508-1.221-1.523-1.523-1.18.165-1.77.672-1.77,1.523v54.035c.027.466.123.7.288.7,0,.851,3.567,1.399,10.7,1.646h3.868c5.24,0,10.7-1.056,16.379-3.169,11.194-5.24,16.791-14.088,16.791-26.544v-2.634c0-4.856-1.111-9.342-3.333-13.457Z"/><path d="M172.801,99.734L37.227,21.461c34.762,21.681,84.554,57.266,106.79,94.898h-.014l-28.784,16.61-28.798,16.625v.014l-28.784,16.61-28.784,16.625h-.014L.055,199.468v66.485l28.784-16.61v-33.264l28.798-16.61v-.014l28.784-16.61v-.014l28.798-16.61,28.784-16.625,28.798-16.625,28.784-16.61v-.014l-28.784-16.61Z"/><polygon points="172.801 166.219 144.003 182.843 115.219 199.468 86.435 216.078 86.421 216.093 57.637 232.703 28.853 249.328 28.839 249.328 28.839 249.342 .055 265.953 28.839 282.563 28.839 282.577 28.853 282.577 86.421 249.328 115.219 232.703 144.003 216.078 172.787 199.468 172.801 199.468 172.801 199.454 201.585 182.843 201.585 149.594 172.801 166.219"/><path d="M28.839,216.078S.055,230.041.055,265.953l28.784-16.625v-33.249Z"/><path d="M28.839,216.078S-1.46,231.799.055,265.953l28.784-16.61v-33.264Z" fill="url(#linear-gradient-2)"/></svg>