<?xml version="1.0" encoding="UTF-8"?><svg id="Layer_1" xmlns="http://www.w3.org/2000/svg" xmlns:xlink="http://www.w3.org/1999/xlink" viewBox="0 0 399.546 117"><defs><linearGradient id="linear-gradient" x1="324.217" y1="-51.285" x2="140.557" y2="198.517" gradientUnits="userSpaceOnUse"><stop offset=".1" stop-color="#667eea"/><stop offset=".36" stop-color="#f093fb"/><stop offset=".591" stop-color="#764ba2"/><stop offset=".9" stop-color="#667eea"/></linearGradient></defs><path d="M86.322,52.136h-23.906c-6.146.762-9.22,3.753-9.22,8.975,0,.707.082,1.061.245,1.061,0,4.08,2.638,6.69,7.914,7.833h13.87v29.372c0,1.686.979,2.665,2.937,2.937h.816c1.686,0,2.692-1.251,3.019-3.753v-31.249c0-2.502-1.36-3.862-4.079-4.08h-15.992c-1.305,0-1.958-.707-1.958-2.121,0-1.469.734-2.203,2.203-2.203h24.395c1.632,0,2.448,1.169,2.448,3.508v42.916c-11.477,3.427-21.513,5.14-30.107,5.14-16.155,0-29.454-5.14-39.898-15.42-8.322-10.661-12.483-22.356-12.483-35.084,0-7.125,1.523-14.713,4.569-22.764C19.038,16.753,34.975,6.527,58.908,6.527c9.084,0,19.038,1.632,29.862,4.895,2.556-.544,3.835-1.632,3.835-3.264,0-.925-.462-1.931-1.387-3.019C80.72,1.713,70.847,0,61.6,0h-5.385C39.898,0,26.408,5.521,15.747,16.563,5.249,29.943,0,43.596,0,57.521v4.651c0,9.628,2.992,19.854,8.975,30.678,11.912,16.1,27.659,24.151,47.241,24.151h8.404c20.615-2.556,30.923-5.548,30.923-8.975v-47.485c0-.762-.082-1.496-.245-2.203-1.632-4.134-4.623-6.201-8.975-6.201Z" fill="#764ba2"/><path d="M169.707,98.153h-36.552v-36.471c0-3.372,4.161-5.412,12.483-6.119h3.019c5.385,0,13.218,1.305,23.498,3.916,2.23,0,3.427-1.197,3.59-3.59,0-.816-.462-1.741-1.387-2.774-10.172-2.937-18.847-4.406-26.027-4.406h-1.877c-2.502,0-4.542.163-6.119.49-9.41,2.121-14.115,6.282-14.115,12.483v40.387c0,1.741,1.033,2.747,3.1,3.019h41.448c2.013.272,3.019.734,3.019,1.387v2.529c-.272.707-.898,1.061-1.877,1.061h-53.115V6.935h54.747c3.318-.272,4.977-1.387,4.977-3.345-.381-2.393-1.387-3.59-3.019-3.59h-60.866c-1.469,0-2.393.925-2.774,2.774v111.452c0,1.469.925,2.393,2.774,2.774h57.276c5.875-.816,8.812-3.671,8.812-8.567v-1.387c0-1.305-.19-2.312-.571-3.019-1.523-3.916-5.004-5.875-10.444-5.875Z" fill="#764ba2"/><path d="M285.239,0h-1.061l-1.387.245c-.598.598-8.241,12.782-22.927,36.552-6.636,9.628-9.954,16.264-9.954,19.908,0,1.741.272,3.59.816,5.548.653,1.523,9.301,16.073,25.946,43.651-.272,2.992-1.469,4.487-3.59,4.487l-2.448-.897L226.331,12.157c-2.665-8.105-6.527-12.157-11.586-12.157h-3.019c-5.385,1.958-8.077,5.195-8.077,9.709v1.387c0,.762.109,1.496.326,2.203,1.197,2.448,5.439,9.9,12.728,22.356,7.887,12.402,11.831,19.5,11.831,21.295v.898c0,1.904-.816,4.107-2.448,6.609-19.255,31.657-28.937,47.893-29.046,48.709v1.061c0,1.469.925,2.393,2.774,2.774h1.061l1.387-.245c.653-.653,9.519-15.23,26.598-43.732,4.406-6.146,6.609-11.395,6.609-15.747,0-3.1-1.55-6.99-4.651-11.667-12.619-20.887-19.446-32.582-20.479-35.084.49-2.611,1.686-3.916,3.59-3.916,1.142.272,2.067.653,2.774,1.142,3.1,6.418,17.487,37.939,43.161,94.563,3.209,9.791,7.153,14.686,11.831,14.686h3.59c5.548-2.012,8.322-5.521,8.322-10.525,0-.435-.082-1.169-.245-2.203,0-.653-5.276-9.682-15.829-27.088-7.18-10.987-10.77-17.542-10.77-19.663,0-1.197.272-2.665.816-4.406,20.289-32.092,30.433-48.519,30.433-49.28v-1.061c0-1.469-.925-2.393-2.774-2.774Z" fill="url(#linear-gradient)"/><path d="M392.937,26.19c-10.28-17.46-27.822-26.19-52.626-26.19h-4.651c-2.992,0-5.793.626-8.404,1.877-6.038,3.536-9.056,7.914-9.056,13.136v86.73c0,1.414,1.006,2.42,3.019,3.019,2.557,0,3.835-1.659,3.835-4.977V15.013c1.088-5.439,4.623-8.159,10.607-8.159h4.406c6.527,0,13.082.816,19.663,2.448,22.138,6.092,33.207,21.621,33.207,46.588,0,8.431-1.441,16.345-4.324,23.743-8.866,20.561-28.502,30.841-58.908,30.841-5.874-.218-12.157-.68-18.847-1.387V5.222c0-1.414-1.006-2.42-3.019-3.019-2.339.326-3.508,1.333-3.508,3.019v107.128c.054.925.245,1.387.571,1.387,0,1.686,7.071,2.774,21.213,3.264h7.669c10.389,0,21.213-2.094,32.473-6.282,22.192-10.389,33.289-27.931,33.289-52.626v-5.222c0-9.628-2.203-18.521-6.609-26.68Z" fill="#764ba2"/></svg>