<?xml version="1.0" encoding="UTF-8" standalone="no"?>
<svg
   viewBox="0 0 320 85"
   width="320"
   height="85"
   version="1.1"
   id="svg13"
   sodipodi:docname="gexd-cli-logo-new-2.svg"
   inkscape:version="1.4.2 (ebf0e940, 2025-05-08)"
   xml:space="preserve"
   xmlns:inkscape="http://www.inkscape.org/namespaces/inkscape"
   xmlns:sodipodi="http://sodipodi.sourceforge.net/DTD/sodipodi-0.dtd"
   xmlns:xlink="http://www.w3.org/1999/xlink"
   xmlns="http://www.w3.org/2000/svg"
   xmlns:svg="http://www.w3.org/2000/svg"><sodipodi:namedview
     id="namedview13"
     pagecolor="#505050"
     bordercolor="#eeeeee"
     borderopacity="1"
     inkscape:showpageshadow="0"
     inkscape:pageopacity="0"
     inkscape:pagecheckerboard="0"
     inkscape:deskcolor="#505050"
     inkscape:zoom="2.3792881"
     inkscape:cx="172.95089"
     inkscape:cy="64.725243"
     inkscape:window-width="1640"
     inkscape:window-height="763"
     inkscape:window-x="33"
     inkscape:window-y="81"
     inkscape:window-maximized="0"
     inkscape:current-layer="svg13" /><defs
     id="defs6"><!-- Terminal Window Gradient --><linearGradient
       id="terminalGradient"
       x1="0%"
       y1="0%"
       x2="0%"
       y2="100%"><stop
         offset="0%"
         style="stop-color:#2d3748;stop-opacity:1"
         id="stop1" /><stop
         offset="100%"
         style="stop-color:#1a202c;stop-opacity:1"
         id="stop2" /></linearGradient><!-- Text Gradient --><linearGradient
       id="textGradient"
       x1="0%"
       y1="0%"
       x2="100%"
       y2="0%"><stop
         offset="0%"
         style="stop-color:#667eea;stop-opacity:1"
         id="stop3" /><stop
         offset="50%"
         style="stop-color:#764ba2;stop-opacity:1"
         id="stop4" /><stop
         offset="100%"
         style="stop-color:#f093fb;stop-opacity:1"
         id="stop5" /></linearGradient><!-- Command Cursor Glow --><filter
       id="glow"
       x="-0.8"
       y="-0.48"
       width="2.6"
       height="1.96"><feGaussianBlur
         stdDeviation="2"
         result="coloredBlur"
         id="feGaussianBlur5" /><feMerge
         id="feMerge6"><feMergeNode
           in="coloredBlur"
           id="feMergeNode5" /><feMergeNode
           in="SourceGraphic"
           id="feMergeNode6" /></feMerge></filter><linearGradient
       id="mainGradient"
       x1="67.377747"
       y1="36.140606"
       x2="24.303473"
       y2="65.282921"
       gradientTransform="matrix(1.5724571,0,0,0.39812618,186.9319,15.281944)"
       gradientUnits="userSpaceOnUse"><stop
         offset="0%"
         style="stop-color:#667eea;stop-opacity:1"
         id="stop1-9" /><stop
         offset="33%"
         style="stop-color:#764ba2;stop-opacity:1"
         id="stop2-3" /><stop
         offset="66%"
         style="stop-color:#f093fb;stop-opacity:1"
         id="stop3-4" /><stop
         offset="100%"
         style="stop-color:#667eea;stop-opacity:1"
         id="stop4-0" /></linearGradient><linearGradient
       id="linear-gradient"
       x1="9.537"
       y1="127.632"
       x2="121.387"
       y2="14.51"
       gradientUnits="userSpaceOnUse"><stop
         offset=".1"
         stop-color="#667eea"
         id="stop1-93" /><stop
         offset=".36"
         stop-color="#f093fb"
         id="stop2-8" /><stop
         offset=".591"
         stop-color="#764ba2"
         id="stop3-0" /><stop
         offset=".9"
         stop-color="#667eea"
         id="stop4-2" /></linearGradient><linearGradient
       id="linear-gradient-2"
       x1="163.589"
       y1="273.352"
       x2="70.951"
       y2="399.352"
       xlink:href="#linear-gradient" /><linearGradient
       id="linear-gradient-3"
       x1="166.701"
       y1="24.066"
       x2="-6.15"
       y2="187.96"
       xlink:href="#linear-gradient" /><linearGradient
       id="linear-gradient-4"
       x1="233.976"
       y1="158.514"
       x2="-160.141"
       y2="349.576"
       xlink:href="#linear-gradient" /><linearGradient
       id="linear-gradient-5"
       x1="224.585"
       y1="139.143"
       x2="-169.532"
       y2="330.206"
       xlink:href="#linear-gradient" /><linearGradient
       id="linear-gradient-6"
       x1="68.451"
       y1="271.943"
       x2="-24.129"
       y2="218.923"
       xlink:href="#linear-gradient" /><linearGradient
       inkscape:collect="always"
       xlink:href="#linear-gradient"
       id="linearGradient1"
       gradientUnits="userSpaceOnUse"
       x1="9.537"
       y1="127.632"
       x2="121.387"
       y2="14.51" /></defs><!-- Terminal Window Background --><rect
     x="10"
     y="15"
     width="200"
     height="50"
     rx="8"
     ry="8"
     fill="url(#terminalGradient)"
     stroke="#4a5568"
     stroke-width="1.5"
     id="rect6" /><!-- Terminal Header (Traffic Lights) --><circle
     cx="25"
     cy="28"
     r="3"
     fill="#ff5f57"
     id="circle6" /><circle
     cx="37"
     cy="28"
     r="3"
     fill="#ffbd2e"
     id="circle7" /><circle
     cx="49"
     cy="28"
     r="3"
     fill="#28ca42"
     id="circle8" /><!-- Terminal Prompt --><text
     x="20"
     y="45"
     font-family="'JetBrains Mono', 'Monaco', 'Consolas', monospace"
     font-size="10"
     fill="#4ade80"
     id="text8">$</text><text
     x="30"
     y="45"
     font-family="'JetBrains Mono', 'Monaco', 'Consolas', monospace"
     font-size="10"
     fill="#e2e8f0"
     id="text9">gexd</text><text
     x="60"
     y="45"
     font-family="'JetBrains Mono', 'Monaco', 'Consolas', monospace"
     font-size="10"
     fill="#38bdf8"
     id="text10">create</text><!-- Blinking Cursor --><rect
     x="100"
     y="38"
     width="6"
     height="10"
     fill="#4ade80"
     filter="url(#glow)"
     id="rect10"><animate
       attributeName="opacity"
       values="1;0;1"
       dur="1.2s"
       repeatCount="indefinite" /></rect><!-- GEXD Main Text --><!-- Command Line Icons --><text
     x="242.32716"
     y="73.157646"
     font-family="system-ui, '-apple-system', sans-serif"
     font-size="2.16498px"
     font-weight="500"
     fill="#64748b"
     text-anchor="middle"
     letter-spacing="3px"
     id="text6"
     style="font-style:normal;font-variant:normal;font-weight:normal;font-stretch:normal;font-size:9.33335px;font-family:'.Al Tarikh PUA';-inkscape-font-specification:'.Al Tarikh PUA';letter-spacing:-0.03px;word-spacing:0.409999px;stroke-width:0.454589"
     transform="scale(1.0998952,0.90917753)"><tspan
       style="font-style:normal;font-variant:normal;font-weight:normal;font-stretch:normal;font-family:'Hiragino Maru Gothic Pro';-inkscape-font-specification:'Hiragino Maru Gothic Pro';stroke-width:0.454589"
       id="tspan1">CLI GENERATOR</tspan></text><g
     id="g1"
     transform="matrix(0.10062617,0,0,0.10062617,256.47425,18.29155)"><polygon
       points="86.421,49.86 115.219,66.485 144.003,83.095 144.003,83.109 172.801,99.734 144.017,116.359 144.003,116.359 144.003,116.344 115.219,99.734 115.219,99.72 86.421,83.109 86.421,83.095 57.637,66.485 28.853,49.86 28.839,49.86 0.055,33.235 0.055,0 28.839,16.611 57.637,33.235 "
       fill="url(#linear-gradient)"
       id="polygon4"
       style="fill:url(#linearGradient1)" /><path
       d="M 43.596,325.518 H 31.538 c -3.1,0.384 -4.65,1.893 -4.65,4.527 0,0.357 0.041,0.535 0.123,0.535 0,2.058 1.331,3.375 3.992,3.951 h 6.996 v 14.815 c 0,0.851 0.494,1.344 1.482,1.482 h 0.412 c 0.851,0 1.358,-0.631 1.523,-1.893 v -15.762 c 0,-1.262 -0.686,-1.948 -2.058,-2.058 h -8.066 c -0.658,0 -0.988,-0.357 -0.988,-1.07 0,-0.741 0.37,-1.111 1.111,-1.111 H 43.72 c 0.823,0 1.235,0.59 1.235,1.77 v 21.647 c -5.789,1.728 -10.851,2.593 -15.186,2.593 -8.148,0 -14.857,-2.593 -20.124,-7.778 -4.198,-5.377 -6.297,-11.276 -6.297,-17.696 0,-3.594 0.768,-7.421 2.305,-11.482 4.006,-10.316 12.044,-15.474 24.116,-15.474 4.582,0 9.603,0.823 15.062,2.469 1.289,-0.274 1.934,-0.823 1.934,-1.646 0,-0.466 -0.233,-0.974 -0.7,-1.523 -5.295,-1.728 -10.275,-2.593 -14.939,-2.593 H 28.41 c -8.231,0 -15.035,2.785 -20.412,8.354 -5.295,6.749 -7.943,13.636 -7.943,20.659 v 2.346 c 0,4.856 1.509,10.014 4.527,15.474 6.008,8.121 13.951,12.181 23.828,12.181 h 4.239 c 10.398,-1.289 15.597,-2.798 15.597,-4.527 v -23.951 c 0,-0.384 -0.041,-0.755 -0.123,-1.111 -0.823,-2.085 -2.332,-3.128 -4.527,-3.128 z"
       fill="#764ba2"
       id="path4" /><path
       d="M 85.655,348.728 H 67.218 v -18.396 c 0,-1.701 2.099,-2.73 6.297,-3.087 h 1.523 c 2.716,0 6.667,0.658 11.852,1.975 1.125,0 1.728,-0.604 1.811,-1.811 0,-0.412 -0.233,-0.878 -0.7,-1.399 -5.131,-1.482 -9.507,-2.222 -13.128,-2.222 h -0.947 c -1.262,0 -2.291,0.082 -3.087,0.247 -4.746,1.07 -7.12,3.169 -7.12,6.297 v 20.371 c 0,0.878 0.521,1.386 1.564,1.523 h 20.906 c 1.015,0.137 1.523,0.37 1.523,0.7 v 1.276 c -0.137,0.357 -0.453,0.535 -0.947,0.535 H 59.974 v -52.018 h 27.614 c 1.674,-0.137 2.51,-0.7 2.51,-1.687 -0.192,-1.207 -0.7,-1.811 -1.523,-1.811 H 57.874 c -0.741,0 -1.207,0.466 -1.399,1.399 v 56.216 c 0,0.741 0.466,1.207 1.399,1.399 h 28.89 c 2.963,-0.412 4.445,-1.852 4.445,-4.321 v -0.7 c 0,-0.658 -0.096,-1.166 -0.288,-1.523 -0.768,-1.975 -2.524,-2.963 -5.268,-2.963 z"
       fill="#764ba2"
       id="path5" /><path
       d="m 143.929,299.22 h -0.535 l -0.7,0.123 c -0.302,0.302 -4.157,6.447 -11.564,18.437 -3.347,4.856 -5.021,8.203 -5.021,10.042 0,0.878 0.137,1.811 0.412,2.798 0.329,0.768 4.692,8.107 13.087,22.017 -0.137,1.509 -0.741,2.263 -1.811,2.263 l -1.235,-0.453 -22.347,-49.097 c -1.344,-4.088 -3.292,-6.132 -5.844,-6.132 h -1.523 c -2.716,0.988 -4.074,2.62 -4.074,4.897 v 0.7 c 0,0.384 0.055,0.755 0.165,1.111 0.604,1.235 2.744,4.993 6.42,11.276 3.978,6.255 5.967,9.836 5.967,10.741 v 0.453 c 0,0.96 -0.412,2.071 -1.235,3.333 -9.712,15.968 -14.596,24.157 -14.651,24.569 v 0.535 c 0,0.741 0.466,1.207 1.399,1.399 h 0.535 l 0.7,-0.123 c 0.329,-0.329 4.801,-7.682 13.416,-22.058 2.222,-3.1 3.333,-5.748 3.333,-7.943 0,-1.564 -0.782,-3.526 -2.346,-5.885 -6.365,-10.535 -9.808,-16.434 -10.33,-17.696 0.247,-1.317 0.851,-1.975 1.811,-1.975 0.576,0.137 1.043,0.329 1.399,0.576 1.564,3.237 8.821,19.137 21.77,47.697 1.619,4.938 3.608,7.408 5.967,7.408 h 1.811 c 2.798,-1.015 4.198,-2.785 4.198,-5.309 0,-0.219 -0.041,-0.59 -0.123,-1.111 0,-0.329 -2.661,-4.884 -7.984,-13.663 -3.622,-5.542 -5.432,-8.848 -5.432,-9.918 0,-0.604 0.137,-1.344 0.412,-2.222 10.234,-16.187 15.35,-24.473 15.35,-24.857 v -0.535 c 0,-0.741 -0.466,-1.207 -1.399,-1.399 z"
       fill="url(#linear-gradient-2)"
       id="path6"
       style="fill:url(#linear-gradient-2)" /><path
       d="m 198.252,312.431 c -5.185,-8.807 -14.033,-13.21 -26.544,-13.21 h -2.346 c -1.509,0 -2.922,0.316 -4.239,0.947 -3.045,1.783 -4.568,3.992 -4.568,6.626 v 43.746 c 0,0.713 0.508,1.221 1.523,1.523 1.29,0 1.934,-0.837 1.934,-2.51 v -42.759 c 0.549,-2.744 2.332,-4.115 5.35,-4.115 h 2.222 c 3.292,0 6.598,0.412 9.918,1.235 11.166,3.073 16.75,10.906 16.75,23.499 0,4.253 -0.727,8.245 -2.181,11.976 -4.472,10.371 -14.376,15.556 -29.713,15.556 -2.963,-0.11 -6.132,-0.343 -9.507,-0.7 v -52.389 c 0,-0.713 -0.508,-1.221 -1.523,-1.523 -1.18,0.165 -1.77,0.672 -1.77,1.523 v 54.035 c 0.027,0.466 0.123,0.7 0.288,0.7 0,0.851 3.567,1.399 10.7,1.646 h 3.868 c 5.24,0 10.7,-1.056 16.379,-3.169 11.194,-5.24 16.791,-14.088 16.791,-26.544 v -2.634 c 0,-4.856 -1.111,-9.342 -3.333,-13.457 z"
       fill="#764ba2"
       id="path7" /><path
       d="M 172.801,99.734 37.227,21.461 c 34.762,21.681 84.554,57.266 106.79,94.898 h -0.014 l -28.784,16.61 -28.798,16.625 v 0.014 l -28.784,16.61 -28.784,16.625 H 28.839 L 0.055,199.468 v 66.485 l 28.784,-16.61 v -33.264 l 28.798,-16.61 v -0.014 l 28.784,-16.61 v -0.014 l 28.798,-16.61 28.784,-16.625 28.798,-16.625 28.784,-16.61 v -0.014 l -28.784,-16.61 z"
       fill="url(#linear-gradient-3)"
       id="path8"
       style="fill:url(#linear-gradient-3)" /><polygon
       points="144.003,216.078 172.787,199.468 172.801,199.468 172.801,199.454 201.585,182.843 201.585,149.594 172.801,166.219 144.003,182.843 115.219,199.468 86.435,216.078 86.421,216.093 57.637,232.703 28.853,249.328 28.839,249.328 28.839,249.342 0.055,265.953 28.839,282.563 28.839,282.577 28.853,282.577 86.421,249.328 115.219,232.703 "
       fill="url(#linear-gradient-4)"
       id="polygon8"
       style="fill:url(#linear-gradient-4)" /><path
       d="m 28.839,216.078 c 0,0 -28.784,13.963 -28.784,49.875 l 28.784,-16.625 v -33.249 z"
       fill="url(#linear-gradient-5)"
       id="path9"
       style="fill:url(#linear-gradient-5)" /><path
       d="m 28.839,216.078 c 0,0 -30.299,15.721 -28.784,49.875 l 28.784,-16.61 v -33.264 z"
       fill="url(#linear-gradient-6)"
       id="path10"
       style="fill:url(#linear-gradient-6)" /></g></svg>
